<svg width="32" height="32" viewBox="0 0 32 32" fill="none" xmlns="http://www.w3.org/2000/svg">
<g clip-path="url(#clip0_15_75)">
<path d="M15.986 0.00199354C15.895 0.00346829 15.8062 0.0297456 15.729 0.0779935L0.229003 10.078C0.137433 10.1362 0.0672736 10.2226 0.0291126 10.3241C-0.00904853 10.4257 -0.0131404 10.5369 0.0174543 10.641C0.0480491 10.7451 0.11167 10.8364 0.198717 10.9012C0.285763 10.9659 0.391512 11.0006 0.500003 11H2.094C2.03389 11.1599 2.00208 11.3291 2 11.5C2 12.147 2.421 12.698 3 12.906V26.092C2.421 26.3 2 26.853 2 27.5C2 27.676 2.037 27.842 2.094 28H2C0.900003 28 3.03611e-06 28.9 3.03611e-06 30C3.03611e-06 31.1 0.900003 32 2 32H30C31.1 32 32 31.1 32 30C32 28.9 31.1 28 30 28H29.906C29.963 27.842 30 27.676 30 27.5C30 26.853 29.579 26.3 29 26.092V12.906C29.579 12.698 30 12.146 30 11.5C30 11.324 29.963 11.157 29.906 11H31.5C31.6079 10.9999 31.7129 10.965 31.7993 10.9003C31.8857 10.8357 31.9488 10.7448 31.9793 10.6413C32.0098 10.5378 32.006 10.4272 31.9685 10.326C31.9309 10.2248 31.8616 10.1385 31.771 10.08L16.271 0.0799935C16.186 0.0258756 16.0867 -0.00131188 15.986 0.00199354ZM16 1.09799L29.799 9.99999H2.2L16 1.09799ZM16 3.99999C14.901 3.99999 14 4.90099 14 5.99999C14 7.09899 14.901 7.99999 16 7.99999C17.099 7.99999 18 7.09899 18 5.99999C18 4.90099 17.099 3.99999 16 3.99999ZM16 4.99999C16.558 4.99999 17 5.44199 17 5.99999C17 6.55799 16.558 6.99999 16 6.99999C15.442 6.99999 15 6.55799 15 5.99999C15 5.44199 15.442 4.99999 16 4.99999ZM3.5 11H5.5C5.786 11 6 11.214 6 11.5C6 11.786 5.786 12 5.5 12H3.5C3.43389 12.0016 3.36814 11.9898 3.30673 11.9653C3.24532 11.9407 3.18955 11.904 3.14278 11.8572C3.09602 11.8105 3.05925 11.7547 3.03471 11.6933C3.01016 11.6319 2.99836 11.5661 3 11.5C3 11.214 3.214 11 3.5 11ZM6.906 11H8.094C8.03389 11.1599 8.00208 11.3291 8 11.5C8 12.147 8.421 12.698 9 12.906V26.092C8.421 26.3 8 26.853 8 27.5C8 27.676 8.037 27.842 8.094 28H6.906C6.963 27.842 7 27.676 7 27.5C7 26.853 6.579 26.3 6 26.092V12.906C6.579 12.698 7 12.146 7 11.5C7 11.324 6.963 11.157 6.906 11ZM9.5 11H11.5C11.786 11 12 11.214 12 11.5C12 11.786 11.786 12 11.5 12H9.5C9.43389 12.0016 9.36814 11.9898 9.30673 11.9653C9.24532 11.9407 9.18954 11.904 9.14278 11.8572C9.09602 11.8105 9.05925 11.7547 9.03471 11.6933C9.01016 11.6319 8.99836 11.5661 9 11.5C9 11.214 9.214 11 9.5 11ZM12.906 11H19.094C19.0339 11.1599 19.0021 11.3291 19 11.5C19 12.147 19.421 12.698 20 12.906V26.092C19.421 26.3 19 26.853 19 27.5C19 27.676 19.037 27.842 19.094 28H12.906C12.963 27.842 13 27.676 13 27.5C13 26.853 12.579 26.3 12 26.092V12.906C12.579 12.698 13 12.146 13 11.5C13 11.324 12.963 11.157 12.906 11ZM20.5 11H22.5C22.786 11 23 11.214 23 11.5C23 11.786 22.786 12 22.5 12H20.5C20.4339 12.0016 20.3681 11.9898 20.3067 11.9653C20.2453 11.9407 20.1895 11.904 20.1428 11.8572C20.096 11.8105 20.0593 11.7547 20.0347 11.6933C20.0102 11.6319 19.9984 11.5661 20 11.5C20 11.214 20.214 11 20.5 11ZM23.906 11H25.094C25.0339 11.1599 25.0021 11.3291 25 11.5C25 12.147 25.421 12.698 26 12.906V26.092C25.421 26.3 25 26.853 25 27.5C25 27.676 25.037 27.842 25.094 28H23.906C23.963 27.842 24 27.676 24 27.5C24 26.853 23.579 26.3 23 26.092V12.906C23.579 12.698 24 12.146 24 11.5C24 11.324 23.963 11.157 23.906 11ZM26.5 11H28.5C28.786 11 29 11.214 29 11.5C29 11.786 28.786 12 28.5 12H26.5C26.4339 12.0016 26.3681 11.9898 26.3067 11.9653C26.2453 11.9407 26.1895 11.904 26.1428 11.8572C26.096 11.8105 26.0593 11.7547 26.0347 11.6933C26.0102 11.6319 25.9984 11.5661 26 11.5C26 11.214 26.214 11 26.5 11ZM4 13H5V26H4V13ZM10 13H11V26H10V13ZM21 13H22V26H21V13ZM27 13H28V26H27V13ZM13.527 16V16.01H13.504V17.01H14.531C15.466 17.01 15.936 17.451 16.105 18H13.527V19H16.105C15.935 19.549 15.465 19.992 14.531 19.992H13.503V20.992H13.799L16.849 24L17.553 23.29L15.158 20.926C15.639 20.8326 16.082 20.6004 16.4326 20.2582C16.7832 19.9159 17.026 19.4786 17.131 19H18.496V18H17.131C17.054 17.64 16.887 17.3 16.652 17H18.496V16H13.527ZM3.5 27H5.5C5.786 27 6 27.214 6 27.5C6 27.786 5.786 28 5.5 28H3.5C3.43389 28.0016 3.36814 27.9898 3.30673 27.9653C3.24532 27.9407 3.18955 27.904 3.14278 27.8572C3.09602 27.8105 3.05925 27.7547 3.03471 27.6933C3.01016 27.6319 2.99836 27.5661 3 27.5C3 27.214 3.214 27 3.5 27ZM9.5 27H11.5C11.786 27 12 27.214 12 27.5C12 27.786 11.786 28 11.5 28H9.5C9.43389 28.0016 9.36814 27.9898 9.30673 27.9653C9.24532 27.9407 9.18954 27.904 9.14278 27.8572C9.09602 27.8105 9.05925 27.7547 9.03471 27.6933C9.01016 27.6319 8.99836 27.5661 9 27.5C9 27.214 9.214 27 9.5 27ZM20.5 27H22.5C22.786 27 23 27.214 23 27.5C23 27.786 22.786 28 22.5 28H20.5C20.4339 28.0016 20.3681 27.9898 20.3067 27.9653C20.2453 27.9407 20.1895 27.904 20.1428 27.8572C20.096 27.8105 20.0593 27.7547 20.0347 27.6933C20.0102 27.6319 19.9984 27.5661 20 27.5C20 27.214 20.214 27 20.5 27ZM26.5 27H28.5C28.786 27 29 27.214 29 27.5C29 27.786 28.786 28 28.5 28H26.5C26.4339 28.0016 26.3681 27.9898 26.3067 27.9653C26.2453 27.9407 26.1895 27.904 26.1428 27.8572C26.096 27.8105 26.0593 27.7547 26.0347 27.6933C26.0102 27.6319 25.9984 27.5661 26 27.5C26 27.214 26.214 27 26.5 27ZM2 29H30C30.563 29 31 29.437 31 30C31 30.563 30.563 31 30 31H2C1.437 31 1 30.563 1 30C1 29.437 1.437 29 2 29Z" fill="#101010"/>
</g>
<defs>
<clipPath id="clip0_15_75">
<rect width="32" height="32" fill="white"/>
</clipPath>
</defs>
</svg>
