<svg width="33" height="37" viewBox="0 0 33 37" fill="none" xmlns="http://www.w3.org/2000/svg">
<g clip-path="url(#clip0_12_13)">
<path d="M16.5 35.3182C16.5 35.3182 31.1667 28.5909 31.1667 18.5V5.04546L16.5 1.68182L1.83333 5.04546V18.5C1.83333 28.5909 16.5 35.3182 16.5 35.3182Z" stroke="#101010" stroke-width="2" stroke-linecap="round" stroke-linejoin="round"/>
<path d="M18.6875 10.9268C19.375 10.9268 19.9375 10.2683 19.9375 9.46341C19.9375 8.65854 19.375 8 18.6875 8C18 8 17.4375 8.65854 17.4375 9.46341C17.4375 10.2683 18 10.9268 18.6875 10.9268ZM12.125 15.6829C10.375 15.6829 9 17.2927 9 19.3415C9 21.3902 10.375 23 12.125 23C13.875 23 15.25 21.3902 15.25 19.3415C15.25 17.2927 13.875 15.6829 12.125 15.6829ZM12.125 21.9024C10.9375 21.9024 9.9375 20.7317 9.9375 19.3415C9.9375 17.9512 10.9375 16.7805 12.125 16.7805C13.3125 16.7805 14.3125 17.9512 14.3125 19.3415C14.3125 20.7317 13.3125 21.9024 12.125 21.9024ZM15.75 14.5854L17.25 12.8293L17.75 13.4146C18.5625 14.3659 19.625 14.9512 20.9375 14.9512V13.4878C20 13.4878 19.25 13.0488 18.6875 12.3902L17.5 11C17.1875 10.7073 16.875 10.561 16.5 10.561C16.125 10.561 15.8125 10.7073 15.625 11L13.875 13.0488C13.625 13.3415 13.5 13.7073 13.5 14.0732C13.5 14.5122 13.625 14.878 13.875 15.0976L15.875 17.1463V20.8049H17.125V16.2683L15.75 14.5854ZM20.875 15.6829C19.125 15.6829 17.75 17.2927 17.75 19.3415C17.75 21.3902 19.125 23 20.875 23C22.625 23 24 21.3902 24 19.3415C24 17.2927 22.625 15.6829 20.875 15.6829ZM20.875 21.9024C19.6875 21.9024 18.6875 20.7317 18.6875 19.3415C18.6875 17.9512 19.6875 16.7805 20.875 16.7805C22.0625 16.7805 23.0625 17.9512 23.0625 19.3415C23.0625 20.7317 22.0625 21.9024 20.875 21.9024Z" fill="#101010"/>
</g>
<defs>
<clipPath id="clip0_12_13">
<rect width="33" height="37" fill="white"/>
</clipPath>
</defs>
</svg>
