<svg width="33" height="37" viewBox="0 0 33 37" fill="none" xmlns="http://www.w3.org/2000/svg">
<path d="M16.5 35.3182C16.5 35.3182 31.1666 28.5909 31.1666 18.5V5.04546L16.5 1.68182L1.83331 5.04546V18.5C1.83331 28.5909 16.5 35.3182 16.5 35.3182Z" stroke="#101010" stroke-width="2" stroke-linecap="round" stroke-linejoin="round"/>
<path d="M22.1178 10H11.89L10 16.125V24H12.3333V22.25H21.6667V24H24V16.125L22.1178 10ZM12.7222 19.625C12.0767 19.625 11.5556 19.0387 11.5556 18.3125C11.5556 17.5863 12.0767 17 12.7222 17C13.3678 17 13.8889 17.5863 13.8889 18.3125C13.8889 19.0387 13.3678 19.625 12.7222 19.625ZM21.2778 19.625C20.6322 19.625 20.1111 19.0387 20.1111 18.3125C20.1111 17.5863 20.6322 17 21.2778 17C21.9233 17 22.4444 17.5863 22.4444 18.3125C22.4444 19.0387 21.9233 19.625 21.2778 19.625ZM11.5556 15.25L12.7222 11.3125H21.2778L22.4444 15.25H11.5556Z" fill="#101010"/>
</svg>
