<svg width="35" height="35" viewBox="0 0 35 35" fill="none" xmlns="http://www.w3.org/2000/svg">
<g clip-path="url(#clip0_20_106)">
<path d="M24.7917 7.29167C26.0021 7.29167 26.9792 6.31459 26.9792 5.10417C26.9792 3.64584 24.7917 1.16667 24.7917 1.16667C24.7917 1.16667 22.6042 3.64584 22.6042 5.10417C22.6042 6.31459 23.5813 7.29167 24.7917 7.29167ZM17.5 7.29167C18.7104 7.29167 19.6875 6.31459 19.6875 5.10417C19.6875 3.64584 17.5 1.16667 17.5 1.16667C17.5 1.16667 15.3125 3.64584 15.3125 5.10417C15.3125 6.31459 16.2896 7.29167 17.5 7.29167ZM10.2083 7.29167C11.4188 7.29167 12.3958 6.31459 12.3958 5.10417C12.3958 3.64584 10.2083 1.16667 10.2083 1.16667C10.2083 1.16667 8.02083 3.64584 8.02083 5.10417C8.02083 6.31459 8.99792 7.29167 10.2083 7.29167ZM27.5917 11.6813C27.3 10.8208 26.4833 10.2083 25.5208 10.2083H9.47917C8.51667 10.2083 7.71458 10.8208 7.40833 11.6813L4.375 20.4167V32.0833C4.375 32.8854 5.03125 33.5417 5.83333 33.5417H7.29167C8.09375 33.5417 8.75 32.8854 8.75 32.0833V30.625H26.25V32.0833C26.25 32.8854 26.9062 33.5417 27.7083 33.5417H29.1667C29.9688 33.5417 30.625 32.8854 30.625 32.0833V20.4167L27.5917 11.6813ZM9.98958 13.125H24.9958L26.5125 17.5H8.47292L9.98958 13.125ZM27.7083 27.7083H7.29167V20.9125L7.46667 20.4167H27.5479L27.7083 20.9125V27.7083Z" fill="#101010"/>
<path d="M10.9375 26.25C12.1456 26.25 13.125 25.2706 13.125 24.0625C13.125 22.8544 12.1456 21.875 10.9375 21.875C9.72938 21.875 8.75 22.8544 8.75 24.0625C8.75 25.2706 9.72938 26.25 10.9375 26.25Z" fill="#101010"/>
<path d="M24.0625 26.25C25.2706 26.25 26.25 25.2706 26.25 24.0625C26.25 22.8544 25.2706 21.875 24.0625 21.875C22.8544 21.875 21.875 22.8544 21.875 24.0625C21.875 25.2706 22.8544 26.25 24.0625 26.25Z" fill="#101010"/>
</g>
<defs>
<clipPath id="clip0_20_106">
<rect width="35" height="35" fill="white"/>
</clipPath>
</defs>
</svg>
