<svg width="34" height="36" viewBox="0 0 34 36" fill="none" xmlns="http://www.w3.org/2000/svg">
<g clip-path="url(#clip0_20_86)">
<path d="M16.2331 3.50803V31.0776C16.2331 31.9174 15.5903 32.5981 14.7972 32.5981H1.77178C0.978694 32.5981 0.335815 31.9174 0.335815 31.0776V3.50803C0.335815 2.66829 0.978694 1.98759 1.77178 1.98759H14.7972C15.5903 1.98759 16.2331 2.66829 16.2331 3.50803Z" fill="#D9D9D9"/>
<path d="M14.0782 24.4962V18.5854C14.0782 18.1655 13.7567 17.8251 13.3602 17.8251H3.20773C2.81122 17.8251 2.48975 18.1655 2.48975 18.5854V24.4962C2.48975 24.916 2.81122 25.2564 3.20773 25.2564H13.3601C13.7567 25.2564 14.0782 24.916 14.0782 24.4962ZM14.0792 14.7862V5.02847C14.0792 4.60863 13.7578 4.26825 13.3612 4.26825H3.20773C2.81122 4.26825 2.48975 4.60863 2.48975 5.02847V14.7862C2.48975 15.206 2.81122 15.5464 3.20773 15.5464H13.3612C13.7578 15.5464 14.0792 15.206 14.0792 14.7862ZM18.5307 8.78611V11.0284C18.5307 11.6582 18.0485 12.1688 17.4537 12.1688H16.2331V7.64578H17.4537C18.0485 7.64578 18.5307 8.15632 18.5307 8.78611Z" fill="#D9D9D9"/>
<path d="M8.65619 6.37946L6.29419 10.4651H7.907L7.8384 13.4351L10.2748 9.29778H8.65619V6.37946Z" fill="#D9D9D9"/>
<path d="M6.59215 21.5427C6.59215 22.1243 6.14703 22.5918 5.60131 22.5918C5.05206 22.5918 4.60687 22.1243 4.60687 21.5427C4.60687 20.9612 5.05199 20.4898 5.60131 20.4898C6.14703 20.4898 6.59215 20.9611 6.59215 21.5427ZM11.961 21.5427C11.961 22.1243 11.5159 22.5918 10.9702 22.5918C10.4209 22.5918 9.97575 22.1243 9.97575 21.5427C9.97575 20.9612 10.4209 20.4898 10.9702 20.4898C11.5159 20.4898 11.961 20.9611 11.961 21.5427Z" fill="#D9D9D9"/>
<path d="M22.9512 17.2214C22.4652 17.2214 22.1701 17.7815 22.4163 18.2251C22.4968 18.3703 22.5941 18.5036 22.705 18.6221C23.0439 18.981 23.5141 19.201 24.028 19.201H24.961V18.1437C24.961 17.6343 24.571 17.2214 24.0899 17.2214H22.9512ZM27.9451 28.5211V33.0438C27.9451 33.5787 27.5355 34.0124 27.0303 34.0124H24.1491C23.6439 34.0124 23.2343 33.5787 23.2343 33.0438V28.5211H27.9451Z" fill="#D9D9D9"/>
<path d="M33.6642 12.8429H29.9942C29.0915 12.8429 28.2743 13.395 27.8931 14.2571L25.7158 19.2005L25.1578 20.4694L24.5784 21.7835H33.6643V12.8429H33.6642Z" fill="#D9D9D9"/>
<path d="M33.6269 19.5339C30.3681 19.6441 27.2985 19.9564 25.1204 20.4695C24.91 20.5211 24.7087 20.5727 24.5166 20.6244C23.5286 20.8956 22.7114 21.6705 22.4064 22.7005C21.8606 24.5442 21.8331 26.3911 22.3119 28.2412C22.4613 28.8127 22.7937 29.2939 23.2328 29.6135C23.614 29.8912 24.0715 30.0526 24.5563 30.0526H33.627L33.6269 19.5339Z" fill="#D9D9D9"/>
<path d="M33.6268 30.0526H24.5592C24.5592 30.9535 25.2514 31.6864 26.1022 31.6864H33.6268V30.0526H33.6268Z" fill="#D9D9D9"/>
<path d="M27.7125 24.3651C28.0826 24.3651 28.3521 24.7499 28.2326 25.1207C27.9347 26.045 27.1059 26.7124 26.1338 26.7124H24.4102C24.1092 26.7124 23.8653 26.454 23.8653 26.1354V25.6654C23.8653 24.9468 24.4147 24.3652 25.0998 24.3652H27.7125V24.3651ZM33.6269 23.9307H32.8661C32.0427 23.9307 31.2773 24.3925 30.8595 25.1416L29.1244 28.2412L29.1213 28.2445H33.6269L33.6269 23.9307Z" fill="#D9D9D9"/>
<path d="M14.0782 29.9406H2.48984C2.29428 29.9406 2.1357 30.1085 2.1357 30.3156C2.1357 30.5227 2.29428 30.6906 2.48984 30.6906H14.0782C14.2738 30.6906 14.4323 30.5227 14.4323 30.3156C14.4323 30.1085 14.2738 29.9406 14.0782 29.9406ZM14.0782 27.4162H2.48984C2.29428 27.4162 2.1357 27.5841 2.1357 27.7912C2.1357 27.9982 2.29428 28.1661 2.48984 28.1661H14.0782C14.2738 28.1661 14.4323 27.9982 14.4323 27.7912C14.4323 27.5841 14.2738 27.4162 14.0782 27.4162ZM13.3602 17.4502H3.20783C2.61661 17.4502 2.13563 17.9594 2.13563 18.5854V24.4961C2.13563 25.1221 2.61654 25.6314 3.20783 25.6314H13.3601C13.9514 25.6314 14.4323 25.1222 14.4323 24.4961V18.5854C14.4323 17.9594 13.9514 17.4502 13.3602 17.4502ZM13.7241 24.4961C13.7241 24.7085 13.5608 24.8814 13.3602 24.8814H3.20783C3.00721 24.8814 2.84399 24.7085 2.84399 24.4961V18.5854C2.84399 18.373 3.00721 18.2002 3.20783 18.2002H13.3601C13.5608 18.2002 13.724 18.373 13.724 18.5854L13.7241 24.4961ZM13.3612 3.89328H3.20769C2.61648 3.89328 2.1355 4.40248 2.1355 5.02855V14.7862C2.1355 15.4122 2.61641 15.9215 3.20769 15.9215H13.3613C13.9525 15.9215 14.4335 15.4123 14.4335 14.7862V5.02855C14.4334 4.40248 13.9525 3.89328 13.3612 3.89328ZM13.725 14.7862C13.725 14.9986 13.5618 15.1715 13.3612 15.1715H3.20769C3.00708 15.1715 2.84385 14.9986 2.84385 14.7862V5.02855C2.84385 4.81613 3.00708 4.6433 3.20769 4.6433H13.3613C13.5619 4.6433 13.7251 4.81613 13.7251 5.02855V14.7862H13.725Z" fill="#101010"/>
<path d="M10.2748 8.92272H9.01034V6.37945C9.01034 6.00229 8.54019 5.86153 8.35405 6.1837L5.99198 10.2694C5.84828 10.5179 6.01642 10.8401 6.29406 10.8401H7.54403L7.4844 13.4259C7.47543 13.806 7.94878 13.9564 8.13896 13.6335L10.5753 9.49612C10.7219 9.24728 10.5533 8.92272 10.2748 8.92272ZM8.22416 12.0712L8.26102 10.4744C8.26606 10.2639 8.10583 10.0903 7.90701 10.0903H6.92619L8.30199 7.71032V9.29784C8.30199 9.50491 8.46057 9.67281 8.65613 9.67281H9.63662L8.22416 12.0712ZM5.60138 20.1149C4.85776 20.1149 4.25287 20.7553 4.25287 21.5427C4.25287 22.328 4.85776 22.9669 5.60138 22.9669C6.34307 22.9669 6.94644 22.328 6.94644 21.5427C6.94644 20.7553 6.34307 20.1149 5.60138 20.1149ZM5.60138 22.2168C5.24843 22.2168 4.96122 21.9144 4.96122 21.5427C4.96122 21.169 5.24843 20.8649 5.60138 20.8649C5.9524 20.8649 6.23808 21.169 6.23808 21.5427C6.23808 21.9144 5.9524 22.2168 5.60138 22.2168ZM10.9701 20.1149C10.2265 20.1149 9.62161 20.7553 9.62161 21.5427C9.62161 22.328 10.2265 22.9669 10.9701 22.9669C11.7118 22.9669 12.3152 22.328 12.3152 21.5427C12.3152 20.7553 11.7118 20.1149 10.9701 20.1149ZM10.9701 22.2168C10.6172 22.2168 10.33 21.9144 10.33 21.5427C10.33 21.169 10.6172 20.8649 10.9701 20.8649C11.3212 20.8649 11.6068 21.169 11.6068 21.5427C11.6068 21.9144 11.3212 22.2168 10.9701 22.2168Z" fill="#101010"/>
<path d="M34.0183 12.8429C34.0183 12.6359 33.8598 12.468 33.6642 12.468H29.9941C28.9608 12.468 28.0103 13.1079 27.5721 14.0986L25.4904 18.8254H25.3152V18.1437C25.3152 17.4284 24.7656 16.8465 24.09 16.8465H22.9513C22.1933 16.8465 21.7249 17.7194 22.111 18.4151C22.5102 19.1341 23.2296 19.5759 24.028 19.5759C24.0644 19.5759 25.1965 19.5754 25.1602 19.5754L24.9128 20.1369C24.7472 20.1783 24.5829 20.2197 24.4278 20.2614C23.3063 20.5692 22.4024 21.4607 22.0685 22.5882C21.8214 23.4226 21.6829 24.2644 21.6404 25.1087C21.1215 24.9531 20.7381 24.4526 20.7381 23.854V11.592C20.7381 10.4892 19.9147 9.58873 18.885 9.53726V8.78618C18.885 7.95066 18.2429 7.27081 17.4538 7.27081H16.5874V3.50803C16.5874 2.46291 15.7843 1.61255 14.7972 1.61255H1.77187C0.784806 1.61255 -0.0183105 2.46291 -0.0183105 3.50803V31.0777C-0.0183105 32.0366 0.660029 32.823 1.53394 32.9477V33.6323C1.53394 34.0487 1.85388 34.3874 2.24707 34.3874H3.42094C3.81419 34.3874 4.13407 34.0486 4.13407 33.6323V32.9731H12.4349V33.6323C12.4349 34.0487 12.7548 34.3874 13.148 34.3874H14.322C14.7152 34.3874 15.0351 34.0486 15.0351 33.6323V32.9477C15.909 32.8229 16.5874 32.0366 16.5874 31.0777V12.5438H17.4538C18.2429 12.5438 18.885 11.8639 18.885 11.0284V10.2921C19.5233 10.3431 20.0297 10.9033 20.0297 11.592V23.8542C20.0297 24.8649 20.7216 25.7061 21.6299 25.8793C21.6491 26.7001 21.7586 27.522 21.9705 28.3412C22.1212 28.9174 22.4455 29.4195 22.8802 29.7894V33.0439C22.8802 33.7847 23.4495 34.3875 24.1491 34.3875H27.0303C27.7299 34.3875 28.2992 33.7847 28.2992 33.0439V32.0615H33.6269C33.8224 32.0615 33.981 31.8936 33.981 31.6865C33.9617 29.7172 34.0164 13.4244 34.0183 12.8429ZM3.42087 33.6374L2.24216 33.6323V32.9749H3.42399L3.42087 33.6374ZM14.3221 33.6374L13.1432 33.6323V32.9749H14.3252L14.3221 33.6374ZM15.8791 31.0777C15.8791 31.7094 15.3938 32.2232 14.7973 32.2232H1.77187C1.17528 32.2232 0.690045 31.7094 0.690045 31.0777V3.50803C0.690045 2.87635 1.17528 2.36257 1.77187 2.36257H14.7973C15.3938 2.36257 15.8791 2.87635 15.8791 3.50803C15.8791 9.30256 15.8791 25.2608 15.8791 31.0777ZM18.1766 11.0284C18.1766 11.4504 17.8523 11.7937 17.4538 11.7937H16.5874V8.02076H17.4538C17.8524 8.02076 18.1766 8.3641 18.1766 8.78611V11.0284ZM28.2138 14.4162C28.5356 13.6884 29.2344 13.218 29.9941 13.218H33.31V19.1707C30.381 19.2817 27.7534 19.5524 25.7789 19.9452L28.2138 14.4162ZM24.6069 18.826H24.0279C23.4978 18.826 23.0021 18.54 22.7216 18.0349C22.6139 17.8409 22.7397 17.5964 22.9512 17.5964H24.0899C24.375 17.5964 24.6069 17.8419 24.6069 18.1437V18.826ZM22.7442 22.8128C23.0055 21.9303 23.7189 21.2308 24.6037 20.9879C27.1758 20.2958 30.6488 20.0233 33.2727 19.9219V23.5557H32.8659C31.9202 23.5557 31.0344 24.0903 30.5547 24.9504L28.9224 27.8663H22.5916C22.2033 26.1787 22.2508 24.4801 22.7442 22.8128ZM33.2727 29.6777H24.5562C23.8905 29.6777 23.2255 29.32 22.8472 28.6163C23.9132 28.6166 18.9856 28.6152 33.2727 28.6194C33.2727 28.687 33.2727 29.7155 33.2727 29.6777ZM33.2727 27.8663H29.746L31.1643 25.3321C31.5176 24.699 32.1696 24.3056 32.866 24.3056H33.2727V27.8663H33.2727ZM27.5909 33.0439C27.5909 33.3712 27.3395 33.6375 27.0302 33.6375H24.149C23.8399 33.6375 23.5884 33.3713 23.5884 33.0439V30.2266C23.798 30.3133 24.015 30.3737 24.2384 30.4021C24.3956 31.3431 25.1692 32.0615 26.1023 32.0615H27.5908V33.0439H27.5909ZM33.2727 31.3115H26.1023C25.5701 31.3115 25.1184 30.9393 24.9672 30.4277H33.2727V31.3115Z" fill="#101010"/>
<path d="M24.41 27.0873H26.1338C27.2336 27.0873 28.2117 26.3457 28.5678 25.2418C28.7673 24.6232 28.3209 23.9901 27.7125 23.9901H25.0996C24.2236 23.9901 23.5109 24.7416 23.5109 25.6653V26.1354C23.511 26.6603 23.9142 27.0873 24.41 27.0873ZM24.2193 25.6654C24.2193 25.1553 24.6143 24.7402 25.0997 24.7402H27.7125C27.8406 24.7402 27.9383 24.8731 27.8975 24.9994C27.6393 25.7998 26.9307 26.3373 26.1339 26.3373H24.4101C24.305 26.3373 24.2194 26.2467 24.2194 26.1354V25.6654H24.2193ZM22.3166 3.69887C24.6918 3.69887 26.6243 5.74686 26.6244 8.26433C26.6244 8.4714 26.783 8.6393 26.9785 8.6393C27.1741 8.6393 27.3327 8.4714 27.3327 8.26433C27.3325 5.33342 25.0822 2.94891 22.3165 2.94891C22.1209 2.94891 21.9623 3.11682 21.9623 3.32389C21.9623 3.53096 22.121 3.69887 22.3166 3.69887Z" fill="#101010"/>
<path d="M22.3165 5.41119C23.8001 5.41119 25.007 6.69109 25.007 8.26426C25.007 8.47133 25.1656 8.63923 25.3611 8.63923C25.5567 8.63923 25.7153 8.47133 25.7153 8.26426C25.7153 6.27758 24.1906 4.66116 22.3165 4.66116C22.121 4.66116 21.9624 4.82907 21.9624 5.03614C21.9624 5.24328 22.121 5.41119 22.3165 5.41119ZM22.067 7.99883C21.9255 8.14894 21.9344 8.39103 22.067 8.53144C22.2075 8.6798 22.4332 8.67214 22.5664 8.53144C22.7076 8.38196 22.7077 8.1488 22.5664 7.99883C22.4353 7.86017 22.1981 7.86017 22.067 7.99883Z" fill="#101010"/>
<path d="M23.3897 8.26432C23.3897 8.47139 23.5483 8.63929 23.7439 8.63929C23.9394 8.63929 24.098 8.47139 24.098 8.26432C24.098 7.22193 23.2989 6.37383 22.3167 6.37383C22.1211 6.37383 21.9625 6.54173 21.9625 6.7488C21.9625 6.95587 22.1211 7.12378 22.3167 7.12378C22.9083 7.12378 23.3897 7.6353 23.3897 8.26432Z" fill="#101010"/>
</g>
<defs>
<clipPath id="clip0_20_86">
<rect width="34" height="36" fill="white"/>
</clipPath>
</defs>
</svg>
