<svg width="25" height="29" viewBox="0 0 25 29" fill="none" xmlns="http://www.w3.org/2000/svg">
<path d="M12.4869 0.28125V0.283437C12.4407 0.284195 12.3947 0.29081 12.3502 0.303125L0.865786 3.58437C0.75158 3.61691 0.651069 3.68574 0.579441 3.78045C0.507812 3.87517 0.46896 3.99062 0.468754 4.10937V17.7812C0.452348 21.8828 3.52032 24.6391 6.47344 26.3234C9.42875 28.01 12.3742 28.7056 12.3742 28.7056C12.4569 28.7252 12.5431 28.7252 12.6258 28.7056C12.6258 28.7056 15.5625 28.0122 18.5134 26.3267C21.4644 24.6369 24.5313 21.8828 24.5313 17.7812V4.10937C24.531 3.99062 24.4922 3.87517 24.4206 3.78045C24.3489 3.68574 24.2484 3.61691 24.1342 3.58437L12.6498 0.303125C12.5969 0.287661 12.542 0.280286 12.4869 0.28125ZM12.5 1.39797L23.4375 4.525V17.7812C23.4375 21.3359 20.7622 23.7783 17.9709 25.373C15.2803 26.9108 12.6914 27.555 12.5 27.602C12.3086 27.555 9.71094 26.9119 7.01594 25.373C4.22141 23.7783 1.54719 21.3392 1.5625 17.7856V4.52828L12.5 1.40234V1.39797ZM12.4781 6.84594C8.24969 6.84594 4.84375 10.2836 4.84375 14.5C4.84375 18.7175 8.24969 22.1562 12.4781 22.1562C16.7066 22.1562 20.1563 18.7219 20.1563 14.5C20.1558 14.4274 20.1409 14.3557 20.1125 14.2889C19.9944 10.172 16.6311 6.84594 12.4781 6.84594ZM12.4781 7.93969C16.1159 7.93969 19.0625 10.8742 19.0625 14.5C19.0625 18.1269 16.1159 21.0625 12.4781 21.0625C11.617 21.0638 10.7641 20.8948 9.96853 20.5652C9.17297 20.2356 8.45045 19.7519 7.84255 19.142C7.23465 18.532 6.75337 17.8079 6.42643 17.0112C6.09948 16.2146 5.93332 15.3611 5.9375 14.5C5.93347 13.639 6.09974 12.7857 6.42676 11.9893C6.75379 11.1928 7.2351 10.4689 7.843 9.85912C8.4509 9.24939 9.17338 8.76591 9.96887 8.43649C10.7644 8.10708 11.6171 7.93824 12.4781 7.93969ZM9.79516 10.1141V10.125H9.77V11.2188H10.8933C11.9138 11.2188 12.43 11.7022 12.6148 12.3016H9.79516V13.3953H12.6148C12.43 13.9969 11.9148 14.4803 10.8933 14.4803H10.5433L10.5389 14.477L10.5345 14.4803H9.76891V15.5741H10.0927L13.4286 18.8641L14.1986 18.0875L11.5791 15.5019C12.7658 15.2536 13.527 14.3698 13.737 13.3953H15.23V12.3016H13.737C13.6517 11.9078 13.468 11.5359 13.212 11.2078H15.23V10.1141H9.79516Z" fill="black"/>
</svg>
