<svg width="29" height="29" viewBox="0 0 29 29" fill="none" xmlns="http://www.w3.org/2000/svg">
<path d="M6.53942 28.8C8.28602 28.8 9.92822 28.1196 11.1636 26.8848L16.6842 21.3642C17.2935 20.7583 17.7765 20.0376 18.1054 19.2438C18.4342 18.4499 18.6024 17.5987 18.6 16.7394C18.6 13.8444 16.7412 11.331 13.9752 10.485L13.6248 11.6322C14.7203 11.9632 15.6796 12.6391 16.3599 13.5594C17.0401 14.4797 17.405 15.5951 17.4 16.7394C17.4019 17.4409 17.2646 18.1358 16.9962 18.7839C16.7279 19.432 16.3337 20.0205 15.8364 20.5152L10.3158 26.0358C9.82103 26.5333 9.23249 26.9277 8.58428 27.1962C7.93607 27.4647 7.24104 27.6019 6.53942 27.6C3.59522 27.6 1.20002 25.2048 1.20002 22.2606C1.20002 20.8344 1.75562 19.4934 2.76362 18.4848L8.28422 12.9642C8.45882 12.7896 8.64662 12.6264 8.84222 12.4788L8.11922 11.5206C7.87807 11.703 7.64974 11.9016 7.43582 12.1152L1.91522 17.6358C1.30613 18.2419 0.823252 18.9626 0.494513 19.7565C0.165775 20.5503 -0.00229633 21.4014 2.36949e-05 22.2606C2.36949e-05 25.866 2.93402 28.8 6.53942 28.8Z" fill="#101010"/>
<path d="M22.2606 2.27622e-05C21.4015 -0.00225099 20.5504 0.165843 19.7567 0.494582C18.963 0.82332 18.2423 1.30618 17.6364 1.91522L12.1158 7.43582C11.5065 8.04173 11.0235 8.76246 10.6946 9.55631C10.3658 10.3502 10.1976 11.2014 10.2 12.0606C10.2 15.1854 12.423 17.8848 15.486 18.48L15.7146 17.3022C13.215 16.8162 11.4006 14.6124 11.4006 12.0606C11.4006 10.6344 11.9562 9.29342 12.9642 8.28482L18.4848 2.76422C18.9794 2.26675 19.5678 1.87234 20.216 1.60384C20.8641 1.33534 21.559 1.19809 22.2606 1.20002C25.2048 1.20002 27.6 3.59522 27.6 6.53942C27.6018 7.24089 27.4646 7.93577 27.1962 8.58387C26.9278 9.23197 26.5336 9.82043 26.0364 10.3152L20.5164 15.8358C20.361 15.9906 20.1984 16.1352 20.031 16.2654L20.769 17.211C20.9742 17.0508 21.1746 16.8738 21.3636 16.6848L26.8842 11.1642C27.4935 10.5583 27.9765 9.83758 28.3053 9.04373C28.6342 8.24988 28.8023 7.39869 28.8 6.53942C28.8 2.93402 25.866 2.27622e-05 22.2606 2.27622e-05Z" fill="#101010"/>
</svg>
