<svg width="25" height="28" viewBox="0 0 25 28" fill="none" xmlns="http://www.w3.org/2000/svg">
<path d="M12.459 4C12.3541 3.99977 12.252 3.96664 12.1669 3.90529C12.0819 3.84393 12.0183 3.75744 11.985 3.658L11.485 2.158C11.4679 2.10708 11.4591 2.05372 11.459 2V1.5C11.459 0.673 12.132 0 12.959 0C13.786 0 14.459 0.673 14.459 1.5V2C14.459 2.13261 14.4063 2.25979 14.3125 2.35355C14.2188 2.44732 14.0916 2.5 13.959 2.5C13.8264 2.5 13.6992 2.44732 13.6054 2.35355C13.5117 2.25979 13.459 2.13261 13.459 2V1.5C13.459 1.36739 13.4063 1.24021 13.3125 1.14645C13.2188 1.05268 13.0916 1 12.959 1C12.8264 1 12.6992 1.05268 12.6054 1.14645C12.5117 1.24021 12.459 1.36739 12.459 1.5V1.919L12.933 3.342C12.9578 3.41712 12.9644 3.49705 12.9524 3.57524C12.9403 3.65342 12.91 3.72765 12.8637 3.79184C12.8175 3.85603 12.7567 3.90835 12.6864 3.94453C12.616 3.98071 12.5381 3.99972 12.459 4Z" fill="#101010"/>
<path d="M16.959 6H12.959C12.8474 5.99997 12.7391 5.96265 12.6512 5.89398C12.5634 5.8253 12.501 5.72922 12.474 5.621L11.974 3.621C11.9564 3.55674 11.9518 3.4896 11.9605 3.42354C11.9691 3.35747 11.991 3.29381 12.0246 3.23629C12.0583 3.17878 12.1031 3.12857 12.1564 3.08861C12.2097 3.04866 12.2705 3.01977 12.3351 3.00364C12.3998 2.98751 12.467 2.98447 12.5329 2.99469C12.5987 3.00491 12.6619 3.02819 12.7186 3.06316C12.7753 3.09813 12.8245 3.14408 12.8632 3.19832C12.9019 3.25256 12.9294 3.31399 12.944 3.379L13.35 5H16.569L16.975 3.379C17.0095 3.25305 17.092 3.14561 17.2047 3.07966C17.3174 3.01371 17.4515 2.99449 17.5782 3.0261C17.7049 3.05772 17.8142 3.13766 17.8828 3.24883C17.9513 3.36001 17.9737 3.49358 17.945 3.621L17.445 5.621C17.4176 5.72921 17.355 5.82522 17.267 5.89386C17.179 5.9625 17.0706 5.99985 16.959 6ZM16.459 18.973H13.459C13.3264 18.973 13.1992 18.9203 13.1054 18.8266C13.0117 18.7328 12.959 18.6056 12.959 18.473C12.959 18.3404 13.0117 18.2132 13.1054 18.1194C13.1992 18.0257 13.3264 17.973 13.459 17.973H16.459C16.5916 17.973 16.7188 18.0257 16.8125 18.1194C16.9063 18.2132 16.959 18.3404 16.959 18.473C16.959 18.6056 16.9063 18.7328 16.8125 18.8266C16.7188 18.9203 16.5916 18.973 16.459 18.973ZM16.459 20.988H12.459C12.3264 20.988 12.1992 20.9353 12.1054 20.8416C12.0117 20.7478 11.959 20.6206 11.959 20.488C11.959 20.3554 12.0117 20.2282 12.1054 20.1344C12.1992 20.0407 12.3264 19.988 12.459 19.988H16.459C16.5916 19.988 16.7188 20.0407 16.8125 20.1344C16.9063 20.2282 16.959 20.3554 16.959 20.488C16.959 20.6206 16.9063 20.7478 16.8125 20.8416C16.7188 20.9353 16.5916 20.988 16.459 20.988ZM15.459 25.988C15.3263 25.988 15.1991 25.9355 15.105 25.842L12.105 22.842C12.0139 22.7477 11.9635 22.6214 11.9646 22.4903C11.9658 22.3592 12.0184 22.2338 12.1111 22.1411C12.2038 22.0484 12.3292 21.9958 12.4603 21.9947C12.5914 21.9935 12.7177 22.0439 12.812 22.135L15.812 25.135C15.8817 25.2049 15.9291 25.2939 15.9483 25.3908C15.9675 25.4876 15.9576 25.588 15.9199 25.6792C15.8821 25.7704 15.8182 25.8484 15.7362 25.9034C15.6542 25.9583 15.5577 25.9878 15.459 25.988Z" fill="#101010"/>
<path d="M13.459 22.973H12.459C12.3264 22.973 12.1992 22.9203 12.1054 22.8266C12.0117 22.7328 11.959 22.6056 11.959 22.473C11.959 22.3404 12.0117 22.2132 12.1054 22.1195C12.1992 22.0257 12.3264 21.973 12.459 21.973H13.459C14.286 21.973 14.959 21.3 14.959 20.473C14.959 19.646 14.286 18.973 13.459 18.973H12.459C12.3264 18.973 12.1992 18.9203 12.1054 18.8266C12.0117 18.7328 11.959 18.6056 11.959 18.473C11.959 18.3404 12.0117 18.2132 12.1054 18.1195C12.1992 18.0257 12.3264 17.973 12.459 17.973H13.459C14.837 17.973 15.959 19.094 15.959 20.473C15.959 21.852 14.837 22.973 13.459 22.973Z" fill="#101010"/>
<path d="M7.459 14H0.5C0.367392 14 0.240215 13.9473 0.146447 13.8536C0.0526785 13.7598 0 13.6326 0 13.5C0 13.3674 0.0526785 13.2402 0.146447 13.1464C0.240215 13.0527 0.367392 13 0.5 13H6.959V5H0.5C0.367392 5 0.240215 4.94732 0.146447 4.85355C0.0526785 4.75979 0 4.63261 0 4.5C0 4.36739 0.0526785 4.24021 0.146447 4.14645C0.240215 4.05268 0.367392 4 0.5 4H7.459C7.59161 4 7.71879 4.05268 7.81255 4.14645C7.90632 4.24021 7.959 4.36739 7.959 4.5V13.5C7.959 13.6326 7.90632 13.7598 7.81255 13.8536C7.71879 13.9473 7.59161 14 7.459 14Z" fill="#101010"/>
<path d="M3.45898 13.5C3.32638 13.5 3.1992 13.4473 3.10543 13.3536C3.01166 13.2598 2.95898 13.1326 2.95898 13V5C2.95898 4.86739 3.01166 4.74021 3.10543 4.64645C3.1992 4.55268 3.32638 4.5 3.45898 4.5C3.59159 4.5 3.71877 4.55268 3.81254 4.64645C3.90631 4.74021 3.95898 4.86739 3.95898 5V13C3.95898 13.1326 3.90631 13.2598 3.81254 13.3536C3.71877 13.4473 3.59159 13.5 3.45898 13.5ZM9.49998 13H7.45898C7.32638 13 7.1992 12.9473 7.10543 12.8536C7.01166 12.7598 6.95898 12.6326 6.95898 12.5V5.5C6.95898 5.36739 7.01166 5.24021 7.10543 5.14645C7.1992 5.05268 7.32638 5 7.45898 5H8.49998C8.63259 5 8.75977 5.05268 8.85354 5.14645C8.94731 5.24021 8.99998 5.36739 8.99998 5.5C8.99998 5.63261 8.94731 5.75979 8.85354 5.85355C8.75977 5.94732 8.63259 6 8.49998 6H7.95898V12H9.49998C9.63259 12 9.75977 12.0527 9.85354 12.1464C9.94731 12.2402 9.99998 12.3674 9.99998 12.5C9.99998 12.6326 9.94731 12.7598 9.85354 12.8536C9.75977 12.9473 9.63259 13 9.49998 13ZM17.418 12H15.071C14.9384 12 14.8112 11.9473 14.7174 11.8536C14.6237 11.7598 14.571 11.6326 14.571 11.5C14.571 11.3674 14.6237 11.2402 14.7174 11.1464C14.8112 11.0527 14.9384 11 15.071 11H17.418C17.5506 11 17.6778 10.9473 17.7715 10.8536C17.8653 10.7598 17.918 10.6326 17.918 10.5C17.918 10.3674 17.8653 10.2402 17.7715 10.1464C17.6778 10.0527 17.5506 10 17.418 10H15.071C14.9384 10 14.8112 9.94732 14.7174 9.85355C14.6237 9.75979 14.571 9.63261 14.571 9.5C14.571 9.36739 14.6237 9.24021 14.7174 9.14645C14.8112 9.05268 14.9384 9 15.071 9H17.418C18.245 9 18.918 9.673 18.918 10.5C18.918 11.327 18.245 12 17.418 12Z" fill="#101010"/>
<path d="M17.418 10H15.071C14.9384 10 14.8113 9.94732 14.7175 9.85355C14.6237 9.75979 14.571 9.63261 14.571 9.5C14.571 9.36739 14.6237 9.24021 14.7175 9.14645C14.8113 9.05268 14.9384 9 15.071 9H17.418C17.5507 9 17.6778 8.94732 17.7716 8.85355C17.8654 8.75979 17.918 8.63261 17.918 8.5C17.918 8.36739 17.8654 8.24021 17.7716 8.14645C17.6778 8.05268 17.5507 8 17.418 8H15.071C14.9384 8 14.8113 7.94732 14.7175 7.85355C14.6237 7.75979 14.571 7.63261 14.571 7.5C14.571 7.36739 14.6237 7.24021 14.7175 7.14645C14.8113 7.05268 14.9384 7 15.071 7H17.418C18.245 7 18.918 7.673 18.918 8.5C18.918 9.327 18.245 10 17.418 10Z" fill="#101010"/>
<path d="M17.418 8H15.071C14.9384 8 14.8112 7.94732 14.7174 7.85355C14.6237 7.75979 14.571 7.63261 14.571 7.5C14.571 7.36739 14.6237 7.24021 14.7174 7.14645C14.8112 7.05268 14.9384 7 15.071 7H17.418C17.5506 7 17.6778 6.94732 17.7715 6.85355C17.8653 6.75979 17.918 6.63261 17.918 6.5C17.918 6.36739 17.8653 6.24021 17.7715 6.14645C17.6778 6.05268 17.5506 6 17.418 6H12.959C12.8264 6 12.6992 5.94732 12.6054 5.85355C12.5117 5.75979 12.459 5.63261 12.459 5.5C12.459 5.36739 12.5117 5.24021 12.6054 5.14645C12.6992 5.05268 12.8264 5 12.959 5H17.418C18.245 5 18.918 5.673 18.918 6.5C18.918 7.327 18.245 8 17.418 8Z" fill="#101010"/>
<path d="M12.959 6C12.8476 6.0001 12.7393 5.9628 12.6515 5.89409C12.5638 5.82538 12.5016 5.72922 12.475 5.621L12.068 4H10.808L9.946 5.724C9.9047 5.80694 9.84107 5.87671 9.76228 5.92547C9.68349 5.97423 9.59266 6.00004 9.5 6H8.5C8.36739 6 8.24021 5.94732 8.14645 5.85355C8.05268 5.75979 8 5.63261 8 5.5C8 5.36739 8.05268 5.24022 8.14645 5.14645C8.24021 5.05268 8.36739 5 8.5 5H9.191L10.053 3.276C10.0945 3.19298 10.1583 3.12317 10.2372 3.07441C10.3162 3.02566 10.4072 2.99989 10.5 3H12.459C12.5705 3.00003 12.6789 3.03735 12.7667 3.10603C12.8546 3.1747 12.917 3.27078 12.944 3.379L13.444 5.379C13.4624 5.45269 13.4637 5.5296 13.4479 5.60389C13.4322 5.67818 13.3997 5.7479 13.3529 5.80776C13.3062 5.86762 13.2464 5.91604 13.1782 5.94935C13.1099 5.98266 13.0349 5.99998 12.959 6Z" fill="#101010"/>
<path d="M9.5 6H8.5C8.36739 6 8.24021 5.94732 8.14645 5.85355C8.05268 5.75979 8 5.63261 8 5.5C8 5.36739 8.05268 5.24021 8.14645 5.14645C8.24021 5.05268 8.36739 5 8.5 5H9.5C9.63261 5 9.75978 5.05268 9.85355 5.14645C9.94732 5.24021 10 5.36739 10 5.5C10 5.63261 9.94732 5.75979 9.85355 5.85355C9.75978 5.94732 9.63261 6 9.5 6Z" fill="#101010"/>
<path d="M5.45898 12C5.73513 12 5.95898 11.7761 5.95898 11.5C5.95898 11.2239 5.73513 11 5.45898 11C5.18284 11 4.95898 11.2239 4.95898 11.5C4.95898 11.7761 5.18284 12 5.45898 12Z" fill="#101010"/>
<path d="M15.959 2.5C15.8264 2.5 15.6992 2.44732 15.6054 2.35355C15.5117 2.25979 15.459 2.13261 15.459 2V1.5C15.459 1.36739 15.4063 1.24021 15.3125 1.14645C15.2188 1.05268 15.0916 1 14.959 1C14.8264 1 14.6992 1.05268 14.6054 1.14645C14.5117 1.24021 14.459 1.36739 14.459 1.5V2C14.459 2.13261 14.4063 2.25979 14.3125 2.35355C14.2188 2.44732 14.0916 2.5 13.959 2.5C13.8264 2.5 13.6992 2.44732 13.6054 2.35355C13.5117 2.25979 13.459 2.13261 13.459 2V1.5C13.459 0.673 14.132 0 14.959 0C15.786 0 16.459 0.673 16.459 1.5V2C16.459 2.13261 16.4063 2.25979 16.3125 2.35355C16.2188 2.44732 16.0916 2.5 15.959 2.5Z" fill="#101010"/>
<path d="M17.4591 4C17.38 3.99972 17.3021 3.98071 17.2317 3.94453C17.1614 3.90835 17.1006 3.85603 17.0543 3.79184C17.0081 3.72765 16.9777 3.65342 16.9657 3.57524C16.9537 3.49705 16.9603 3.41712 16.9851 3.342L17.4591 1.919V1.5C17.4591 1.36739 17.4064 1.24021 17.3126 1.14645C17.2189 1.05268 17.0917 1 16.9591 1C16.8265 1 16.6993 1.05268 16.6055 1.14645C16.5118 1.24021 16.4591 1.36739 16.4591 1.5V2C16.4591 2.13261 16.4064 2.25979 16.3126 2.35355C16.2189 2.44732 16.0917 2.5 15.9591 2.5C15.8265 2.5 15.6993 2.44732 15.6055 2.35355C15.5118 2.25979 15.4591 2.13261 15.4591 2V1.5C15.4591 0.673 16.1321 0 16.9591 0C17.7861 0 18.4591 0.673 18.4591 1.5V2C18.459 2.05372 18.4502 2.10708 18.4331 2.158L17.9331 3.658C17.8999 3.75752 17.8363 3.8441 17.7513 3.90548C17.6662 3.96685 17.564 3.99992 17.4591 4ZM19.9591 28H8.95909C7.24409 28 5.70109 27.047 4.93409 25.513C4.16709 23.979 4.33009 22.173 5.35909 20.8L11.0591 13.2C11.1057 13.1379 11.1661 13.0875 11.2355 13.0528C11.3049 13.0181 11.3815 13 11.4591 13H17.4591C17.5367 13 17.6133 13.0181 17.6827 13.0528C17.7521 13.0875 17.8125 13.1379 17.8591 13.2L23.5591 20.8C24.0631 21.4675 24.37 22.2628 24.4452 23.0958C24.5203 23.9288 24.3606 24.7661 23.9841 25.513C23.6124 26.2621 23.0383 26.8921 22.327 27.3316C21.6156 27.7712 20.7953 28.0027 19.9591 28ZM11.7091 14L6.15909 21.399C5.76217 21.9159 5.5204 22.535 5.46197 23.1841C5.40355 23.8332 5.53087 24.4855 5.82909 25.065C6.11357 25.6512 6.55891 26.1444 7.11312 26.487C7.66734 26.8296 8.30757 27.0075 8.95909 27H19.9591C20.6105 27.0072 21.2506 26.8291 21.8048 26.4865C22.3589 26.1439 22.8043 25.651 23.0891 25.065C23.3872 24.4854 23.5143 23.833 23.4557 23.184C23.3971 22.5349 23.1552 21.9158 22.7581 21.399L17.2091 14H11.7091Z" fill="#101010"/>
<path d="M12.566 16C12.4875 16.0003 12.41 15.982 12.3398 15.9465C12.2697 15.9111 12.2089 15.8596 12.1625 15.7962C12.1161 15.7328 12.0853 15.6594 12.0727 15.5818C12.0601 15.5043 12.0661 15.4248 12.09 15.35L12.721 13.35C12.7531 13.2486 12.8166 13.16 12.9024 13.0971C12.9881 13.0341 13.0917 13.0001 13.198 13H15.722C15.94 13 16.133 13.142 16.199 13.35L16.83 15.35C16.8498 15.4126 16.857 15.4786 16.8513 15.544C16.8456 15.6094 16.8271 15.6731 16.7968 15.7314C16.7664 15.7896 16.7249 15.8414 16.6746 15.8836C16.6243 15.9258 16.5662 15.9577 16.5035 15.9775C16.4409 15.9973 16.375 16.0045 16.3096 15.9988C16.2441 15.9931 16.1804 15.9745 16.1222 15.9442C16.0639 15.9139 16.0122 15.8724 15.97 15.8221C15.9277 15.7718 15.8958 15.7136 15.876 15.651L15.355 14H13.564L13.043 15.65C13.0109 15.7513 12.9473 15.8398 12.8616 15.9027C12.7759 15.9656 12.6724 15.9997 12.566 16Z" fill="#101010"/>
<path d="M14.459 16C14.3264 16 14.1992 15.9473 14.1054 15.8536C14.0117 15.7598 13.959 15.6326 13.959 15.5V13.5C13.959 13.3674 14.0117 13.2402 14.1054 13.1464C14.1992 13.0527 14.3264 13 14.459 13C14.5916 13 14.7188 13.0527 14.8125 13.1464C14.9063 13.2402 14.959 13.3674 14.959 13.5V15.5C14.959 15.6326 14.9063 15.7598 14.8125 15.8536C14.7188 15.9473 14.5916 16 14.459 16Z" fill="#101010"/>
<path d="M16.5001 14H10.5001C10.3675 13.9998 10.2403 13.9474 10.1461 13.854L9.14609 12.854C9.05501 12.7597 9.00462 12.6334 9.00576 12.5023C9.0069 12.3712 9.05948 12.2458 9.15218 12.1531C9.24489 12.0604 9.37029 12.0078 9.50139 12.0067C9.63249 12.0055 9.75879 12.0559 9.85309 12.147L10.7071 13H16.5001C16.6327 13 16.7599 13.0527 16.8536 13.1465C16.9474 13.2402 17.0001 13.3674 17.0001 13.5C17.0001 13.6326 16.9474 13.7598 16.8536 13.8536C16.7599 13.9473 16.6327 14 16.5001 14Z" fill="#101010"/>
<path d="M17.418 14H15.071C14.9384 14 14.8113 13.9473 14.7175 13.8536C14.6237 13.7598 14.571 13.6326 14.571 13.5C14.571 13.3674 14.6237 13.2402 14.7175 13.1464C14.8113 13.0527 14.9384 13 15.071 13H17.418C17.5507 13 17.6778 12.9473 17.7716 12.8536C17.8654 12.7598 17.918 12.6326 17.918 12.5C17.918 12.3674 17.8654 12.2402 17.7716 12.1464C17.6778 12.0527 17.5507 12 17.418 12H15.071C14.9384 12 14.8113 11.9473 14.7175 11.8536C14.6237 11.7598 14.571 11.6326 14.571 11.5C14.571 11.3674 14.6237 11.2402 14.7175 11.1464C14.8113 11.0527 14.9384 11 15.071 11H17.418C18.245 11 18.918 11.673 18.918 12.5C18.918 13.327 18.245 14 17.418 14Z" fill="#101010"/>
</svg>
