<svg width="20" height="26" viewBox="0 0 20 26" fill="none" xmlns="http://www.w3.org/2000/svg">
<path d="M10 0C4.47143 0 0 4.069 0 9.1C0 15.925 10 26 10 26C10 26 20 15.925 20 9.1C20 4.069 15.5286 0 10 0ZM2.85714 9.1C2.85714 5.512 6.05714 2.6 10 2.6C13.9429 2.6 17.1429 5.512 17.1429 9.1C17.1429 12.844 13.0286 18.447 10 21.944C7.02857 18.473 2.85714 12.805 2.85714 9.1Z" fill="#101010"/>
<path d="M10 13C12.2091 13 14 11.2091 14 9C14 6.79086 12.2091 5 10 5C7.79086 5 6 6.79086 6 9C6 11.2091 7.79086 13 10 13Z" fill="#101010"/>
</svg>
