<svg width="32" height="32" viewBox="0 0 32 32" fill="none" xmlns="http://www.w3.org/2000/svg">
<path d="M28.354 1.354C28.4105 1.29723 28.4526 1.22772 28.4766 1.15132C28.5007 1.07491 28.506 0.993844 28.4922 0.914943C28.4784 0.836043 28.4458 0.761618 28.3972 0.697933C28.3486 0.634249 28.2855 0.58317 28.213 0.548996C27.0956 0.0212962 25.8422 -0.14752 24.625 0.0657336C23.4078 0.278987 22.2865 0.863849 21.415 1.74C19.717 3.449 19.124 6.133 19.916 8.377L8.37702 19.916C7.73597 19.69 7.06073 19.5763 6.38102 19.58C4.66702 19.58 3.00502 20.262 1.82202 21.452C0.953637 22.3166 0.366701 23.4235 0.138119 24.6274C-0.0904629 25.8313 0.0499715 27.0762 0.541021 28.199C0.573208 28.2742 0.623407 28.3402 0.687184 28.3914C0.750961 28.4426 0.826355 28.4772 0.906709 28.4924C0.987062 28.5075 1.0699 28.5026 1.14792 28.4781C1.22593 28.4536 1.29671 28.4103 1.35402 28.352L4.84502 24.843C5.07502 24.611 5.44602 24.58 5.63802 24.775L7.14502 26.352C7.36402 26.573 7.35402 26.914 7.12302 27.147L3.64502 30.647C3.5885 30.7037 3.54643 30.7731 3.52238 30.8494C3.49832 30.9258 3.49298 31.0068 3.50681 31.0856C3.52063 31.1644 3.55322 31.2388 3.60181 31.3024C3.65041 31.366 3.71359 31.4169 3.78602 31.451C4.59527 31.8371 5.48039 32.0379 6.37702 32.039C7.94902 32.039 9.44202 31.407 10.584 30.259C12.282 28.551 12.875 25.867 12.082 23.623L23.621 12.083C24.2624 12.3089 24.938 12.4226 25.618 12.419C27.332 12.419 28.994 11.737 30.177 10.547C31.0454 9.68234 31.6323 8.57554 31.8609 7.3716C32.0895 6.16766 31.9491 4.92275 31.458 3.8C31.4258 3.72483 31.3756 3.65875 31.3119 3.60759C31.2481 3.55642 31.1727 3.52175 31.0923 3.50663C31.012 3.49151 30.9291 3.4964 30.8511 3.52088C30.7731 3.54536 30.7023 3.58868 30.645 3.647L27.154 7.156C27.0462 7.26026 26.9015 7.31771 26.7515 7.31583C26.6015 7.31396 26.4583 7.25292 26.353 7.146L24.854 5.647C24.8005 5.59566 24.758 5.53405 24.7289 5.46587C24.6998 5.39769 24.6847 5.32434 24.6846 5.25021C24.6845 5.17607 24.6994 5.10269 24.7283 5.03443C24.7573 4.96618 24.7997 4.90447 24.853 4.853L28.354 1.354ZM24.146 6.354L25.645 7.853C26.244 8.455 27.27 8.458 27.863 7.862L30.793 4.918C31.0251 5.78298 31.0249 6.69389 30.7925 7.55877C30.56 8.42366 30.1035 9.21192 29.469 9.844C28.472 10.847 27.07 11.421 25.619 11.421C24.936 11.421 24.289 11.293 23.696 11.041C23.6044 11.002 23.5031 10.9912 23.4053 11.0101C23.3075 11.029 23.2176 11.0766 23.147 11.147L11.147 23.147C11.0768 23.2172 11.0291 23.3067 11.01 23.4042C10.991 23.5016 11.0014 23.6025 11.04 23.694C11.843 25.604 11.354 28.069 9.87702 29.555C9.24061 30.2005 8.43934 30.6592 7.56041 30.881C6.68147 31.1028 5.75853 31.0793 4.89202 30.813L7.83302 27.853C8.45402 27.228 8.46402 26.259 7.86202 25.655L6.35602 24.078C5.77502 23.493 4.74202 23.529 4.13802 24.14L1.20802 27.084C0.975932 26.219 0.976128 25.3081 1.20859 24.4432C1.44105 23.5783 1.89755 22.7901 2.53202 22.158C3.52902 21.155 4.93102 20.581 6.38202 20.581C7.06502 20.581 7.71202 20.709 8.30502 20.961C8.39663 21.0003 8.49792 21.0112 8.5958 20.9923C8.69368 20.9734 8.78363 20.9256 8.85402 20.855L20.854 8.85499C20.9243 8.78481 20.972 8.69527 20.991 8.59783C21.0101 8.50038 20.9996 8.39947 20.961 8.30799C20.158 6.39799 20.647 3.932 22.124 2.446C22.7602 1.80109 23.561 1.34286 24.4393 1.12108C25.3176 0.899291 26.2399 0.922436 27.106 1.188L24.146 4.149C23.9997 4.29288 23.8834 4.46447 23.804 4.65376C23.7247 4.84305 23.6838 5.04625 23.6838 5.2515C23.6838 5.45675 23.7247 5.65994 23.804 5.84923C23.8834 6.03852 23.9997 6.21011 24.146 6.354Z" fill="#101010"/>
<path d="M29.21 30.647C29.0988 30.754 28.9504 30.8135 28.7961 30.8132C28.6418 30.8128 28.4937 30.7525 28.383 30.645L18.353 20.645C18.2574 20.5595 18.1327 20.514 18.0045 20.5177C17.8764 20.5214 17.7545 20.5741 17.664 20.6649C17.5736 20.7558 17.5214 20.8779 17.5182 21.0061C17.515 21.1343 17.5611 21.2588 17.647 21.354L27.676 31.352C27.976 31.653 28.374 31.819 28.798 31.819C29.222 31.819 29.62 31.653 29.926 31.345L31.355 29.852C31.5011 29.7078 31.6171 29.536 31.6962 29.3467C31.7753 29.1573 31.816 28.954 31.8159 28.7488C31.8158 28.5435 31.775 28.3403 31.6957 28.151C31.6164 27.9617 31.5002 27.79 31.354 27.646L21.354 17.646C21.2597 17.5549 21.1334 17.5045 21.0023 17.5057C20.8712 17.5068 20.7458 17.5594 20.6531 17.6521C20.5604 17.7448 20.5078 17.8702 20.5067 18.0013C20.5055 18.1324 20.5559 18.2587 20.647 18.353L30.646 28.352C30.875 28.582 30.875 28.916 30.639 29.154L29.21 30.647ZM5.854 3.146L2.854 0.145996C2.76024 0.052261 2.63309 -0.000396729 2.5005 -0.000396729C2.36792 -0.000396729 2.24077 0.052261 2.147 0.145996L0.147004 2.146C0.053268 2.23976 0.000610352 2.36691 0.000610352 2.4995C0.000610352 2.63208 0.053268 2.75923 0.147004 2.853L3.147 5.853C3.24089 5.94638 3.36788 5.99888 3.5003 5.99907C3.63272 5.99926 3.75985 5.94711 3.854 5.854L4.5 5.207L12.146 12.853C12.1921 12.9008 12.2472 12.939 12.3081 12.9653C12.3691 12.9916 12.4347 13.0054 12.5011 13.0061C12.5675 13.0068 12.6333 12.9942 12.6948 12.9692C12.7563 12.9441 12.8122 12.9071 12.8592 12.8602C12.9062 12.8133 12.9434 12.7575 12.9686 12.6961C12.9938 12.6347 13.0066 12.5689 13.0061 12.5025C13.0056 12.4361 12.9919 12.3705 12.9658 12.3095C12.9397 12.2484 12.9017 12.1932 12.854 12.147L5.207 4.5L5.853 3.854C5.89963 3.80762 5.93665 3.75249 5.96195 3.69178C5.98724 3.63107 6.0003 3.56597 6.0004 3.5002C6.00049 3.43444 5.98761 3.3693 5.96249 3.30852C5.93737 3.24774 5.9005 3.19251 5.854 3.146ZM3.5 4.793L1.207 2.5L2.5 1.207L4.793 3.5L3.5 4.793Z" fill="#101010"/>
</svg>
