<svg width="48" height="48" viewBox="0 0 48 48" fill="none" xmlns="http://www.w3.org/2000/svg">
<g clip-path="url(#clip0_20_84)">
<path d="M24 0C10.751 0 0 10.751 0 24C0 37.249 10.751 48 24 48C37.249 48 48 37.249 48 24C48 10.751 37.249 0 24 0ZM24 1C36.708 1 47 11.292 47 24C47 36.709 36.708 47 24 47C11.292 47 1 36.709 1 24C1 11.292 11.292 1 24 1ZM14.5 10C14.3674 10 14.2402 10.0527 14.1464 10.1464C14.0527 10.2402 14 10.3674 14 10.5V34H13.5C13.3674 34 13.2402 34.0527 13.1464 34.1464C13.0527 34.2402 13 34.3674 13 34.5V36.5C13 36.6326 13.0527 36.7598 13.1464 36.8536C13.2402 36.9473 13.3674 37 13.5 37H28.5C28.6326 37 28.7598 36.9473 28.8536 36.8536C28.9473 36.7598 29 36.6326 29 36.5V34.5C29 34.3674 28.9473 34.2402 28.8536 34.1464C28.7598 34.0527 28.6326 34 28.5 34H28V26H29.5C29.6326 26 29.7598 25.9473 29.8536 25.8536C29.9473 25.7598 30 25.6326 30 25.5V25H30.5C30.786 25 31 25.214 31 25.5V33.5C31 34.29 31.628 34.94 32.406 34.99C32.4369 34.9963 32.4684 34.9996 32.5 35H33.5C33.535 34.9996 33.5698 34.9956 33.604 34.988C33.9812 34.9611 34.3344 34.793 34.5932 34.5172C34.8519 34.2414 34.9972 33.8782 35 33.5V25H35.5C35.6326 25 35.7598 24.9473 35.8536 24.8536C35.9473 24.7598 36 24.6326 36 24.5V23H37.5C37.5793 23.0001 37.6574 22.9813 37.728 22.9453C37.7986 22.9092 37.8596 22.8569 37.906 22.7927C37.9524 22.7284 37.9829 22.654 37.9949 22.5756C38.0069 22.4973 38 22.4172 37.975 22.342L37.193 20H37.5C37.5759 19.9998 37.6507 19.9824 37.7188 19.949C37.787 19.9156 37.8466 19.8672 37.8932 19.8074C37.9399 19.7475 37.9723 19.6779 37.988 19.6036C38.0037 19.5294 38.0024 19.4526 37.984 19.379L36.984 15.379C36.9571 15.2709 36.8948 15.175 36.8071 15.1063C36.7194 15.0377 36.6114 15.0003 36.5 15H34.687L33.857 14.152C33.8104 14.1039 33.7546 14.0657 33.6929 14.0396C33.6313 14.0135 33.565 14 33.498 14C33.366 14.0003 33.2395 14.0528 33.146 14.146L33.023 14.27L32.141 12.736C32.0854 12.6388 31.9988 12.5631 31.895 12.521L30.693 12.039C30.6313 12.0131 30.565 11.9998 30.498 12C30.3812 12.0001 30.2681 12.0412 30.1784 12.116C30.0887 12.1908 30.028 12.2946 30.0069 12.4095C29.9858 12.5244 30.0055 12.643 30.0627 12.7448C30.1199 12.8467 30.2109 12.9253 30.32 12.967L31.361 13.385L32.293 15L32.146 15.146C32.0996 15.1925 32.0628 15.2477 32.0378 15.3085C32.0127 15.3692 31.9999 15.4343 32 15.5V18.5C32 18.6326 32.0527 18.7598 32.1464 18.8536C32.2402 18.9473 32.3674 19 32.5 19H32.86L32.016 22.379C31.9976 22.4526 31.9963 22.5294 32.012 22.6036C32.0277 22.6779 32.0601 22.7475 32.1068 22.8074C32.1534 22.8672 32.213 22.9156 32.2812 22.949C32.3493 22.9824 32.4241 22.9998 32.5 23H33V24.5C33 24.6326 33.0527 24.7598 33.1464 24.8536C33.2402 24.9473 33.3674 25 33.5 25H34V33.5C34 33.786 33.786 34 33.5 34H32.5C32.4339 34.0016 32.3681 33.9898 32.3067 33.9653C32.2453 33.9408 32.1895 33.904 32.1428 33.8572C32.096 33.8105 32.0592 33.7547 32.0347 33.6933C32.0102 33.6319 31.9984 33.5661 32 33.5V25.5C32 24.678 31.322 24 30.5 24H30V20.5C30 20.3674 29.9473 20.2402 29.8536 20.1464C29.7598 20.0527 29.6326 20 29.5 20H28V10.5C28 10.3674 27.9473 10.2402 27.8536 10.1464C27.7598 10.0527 27.6326 10 27.5 10H14.5ZM15 11H27V34H15V11ZM16.5 13C16.3674 13 16.2402 13.0527 16.1464 13.1464C16.0527 13.2402 16 13.3674 16 13.5V20.5C16 20.6326 16.0527 20.7598 16.1464 20.8536C16.2402 20.9473 16.3674 21 16.5 21H25.5C25.6326 21 25.7598 20.9473 25.8536 20.8536C25.9473 20.7598 26 20.6326 26 20.5V13.5C26 13.3674 25.9473 13.2402 25.8536 13.1464C25.7598 13.0527 25.6326 13 25.5 13H16.5ZM17 14H25V20H17V14ZM33.496 15.21L34.119 15.85C34.1657 15.8976 34.2214 15.9354 34.2829 15.9612C34.3443 15.9869 34.4103 16.0001 34.477 16H36.11L36.86 19H36.5C36.4207 18.9999 36.3426 19.0187 36.272 19.0547C36.2014 19.0908 36.1404 19.1431 36.094 19.2073C36.0476 19.2716 36.0171 19.346 36.0051 19.4244C35.9931 19.5027 36 19.5828 36.025 19.658L36.807 22H33.14L33.984 18.623C34.0027 18.5493 34.0044 18.4722 33.9888 18.3977C33.9732 18.3233 33.9409 18.2533 33.8942 18.1932C33.8475 18.1332 33.7878 18.0845 33.7195 18.051C33.6511 18.0176 33.5761 18.0001 33.5 18H33V15.707L33.496 15.211V15.21ZM28 21H29V24.418C28.991 24.4723 28.991 24.5277 29 24.582V25H28V21ZM21.006 23C20.9369 22.999 20.8683 23.0124 20.8047 23.0392C20.741 23.0661 20.6835 23.1058 20.636 23.156C20.636 23.156 19.864 23.973 19.088 25.012C18.312 26.05 17.478 27.252 17.478 28.402C17.479 30.377 19.055 32 21 32C22.946 32 24.521 30.377 24.521 28.402C24.521 27.252 23.688 26.05 22.912 25.012C22.4281 24.367 21.9111 23.7475 21.363 23.156C21.317 23.1074 21.2616 23.0686 21.2003 23.0418C21.139 23.015 21.0729 23.0008 21.006 23ZM34 23H35V24H34V23ZM21 24.28C21.24 24.543 21.556 24.868 22.11 25.61C22.845 26.594 23.521 27.841 23.521 28.402C23.521 29.85 22.391 31 21 31C19.608 31 18.479 29.85 18.479 28.402C18.479 27.841 19.155 26.594 19.891 25.609C20.444 24.868 20.76 24.543 21 24.279V24.28ZM22.492 27.412C22.4263 27.413 22.3615 27.427 22.3013 27.4531C22.241 27.4792 22.1865 27.5169 22.1408 27.5641C22.0951 27.6113 22.0591 27.667 22.035 27.728C22.0108 27.7891 21.9989 27.8543 22 27.92C22 28.46 21.718 28.955 21.268 29.22C21.2114 29.2535 21.162 29.2978 21.1225 29.3504C21.083 29.403 21.0543 29.4628 21.0379 29.5265C21.0216 29.5903 21.0179 29.6565 21.0272 29.7217C21.0365 29.7868 21.0585 29.8494 21.092 29.906C21.1255 29.9626 21.1698 30.012 21.2224 30.0515C21.275 30.091 21.3348 30.1197 21.3986 30.1361C21.4623 30.1524 21.5285 30.1561 21.5937 30.1468C21.6588 30.1375 21.7214 30.1155 21.778 30.082C22.1519 29.8588 22.4612 29.542 22.6755 29.1629C22.8898 28.7838 23.0016 28.3555 23 27.92C23.0011 27.853 22.9887 27.7864 22.9635 27.7243C22.9384 27.6622 22.901 27.6058 22.8536 27.5584C22.8062 27.511 22.7498 27.4736 22.6877 27.4485C22.6256 27.4233 22.559 27.4109 22.492 27.412ZM14 35H28V36H14V35Z" fill="#101010"/>
</g>
<defs>
<clipPath id="clip0_20_84">
<rect width="48" height="48" fill="white"/>
</clipPath>
</defs>
</svg>
