<svg width="35" height="35" viewBox="0 0 35 35" fill="none" xmlns="http://www.w3.org/2000/svg">
<path d="M26.6786 25.4294C29.1732 22.6375 30.5511 19.0235 30.5484 15.279C30.5484 6.85014 23.6915 0 15.2742 0C6.84797 0 0 6.85906 0 15.279C0 23.699 6.85689 30.558 15.2742 30.558C19.0175 30.5607 22.6304 29.1825 25.4213 26.687L33.473 34.7413C33.5558 34.8246 33.6545 34.8905 33.7633 34.935C33.8721 34.9794 33.9886 35.0015 34.1061 34.9999C34.3427 34.999 34.5696 34.9062 34.7392 34.7413C34.8219 34.6587 34.8875 34.5607 34.9322 34.4528C34.977 34.3449 35 34.2293 35 34.1124C35 33.9956 34.977 33.8799 34.9322 33.772C34.8875 33.6641 34.8219 33.5661 34.7392 33.4836L26.6786 25.4294ZM1.77441 15.279C1.77441 7.8402 7.8288 1.78389 15.2653 1.78389C22.7017 1.78389 28.7561 7.8402 28.7561 15.279C28.7561 22.7178 22.7017 28.7741 15.2653 28.7741C7.8288 28.7741 1.77441 22.7178 1.77441 15.279Z" fill="black"/>
</svg>
