<svg width="35" height="25" viewBox="0 0 35 25" fill="none" xmlns="http://www.w3.org/2000/svg">
<path d="M29.1667 21.25C30.7708 21.25 32.0833 19.9375 32.0833 18.3333V3.75001C32.0833 2.14584 30.7708 0.833344 29.1667 0.833344H5.83333C4.22917 0.833344 2.91667 2.14584 2.91667 3.75001V18.3333C2.91667 19.9375 4.22917 21.25 5.83333 21.25H0V24.1667H35V21.25H29.1667ZM5.83333 3.75001H29.1667V18.3333H5.83333V3.75001Z" fill="#101010"/>
<path d="M21.2483 8.75457C21.14 8.48416 20.8367 8.29166 20.4792 8.29166H14.5208C14.1633 8.29166 13.8654 8.48416 13.7517 8.75457L12.625 11.5V15.1667C12.625 15.4187 12.8688 15.625 13.1667 15.625H13.7083C14.0063 15.625 14.25 15.4187 14.25 15.1667V14.7083H20.75V15.1667C20.75 15.4187 20.9938 15.625 21.2917 15.625H21.8333C22.1313 15.625 22.375 15.4187 22.375 15.1667V11.5L21.2483 8.75457ZM14.7104 9.20832H20.2842L20.8692 10.6337H14.1254L14.7104 9.20832ZM21.2917 13.7917H13.7083V11.5H21.2917V13.7917Z" fill="#101010"/>
</svg>
