<svg width="13" height="11" viewBox="0 0 13 11" fill="none" xmlns="http://www.w3.org/2000/svg">
<g clip-path="url(#clip0_20_50)">
<path d="M10.2483 2.75458C10.14 2.48416 9.83667 2.29166 9.47917 2.29166H3.52083C3.16333 2.29166 2.86542 2.48416 2.75167 2.75458L1.625 5.5V9.16666C1.625 9.41875 1.86875 9.625 2.16667 9.625H2.70833C3.00625 9.625 3.25 9.41875 3.25 9.16666V8.70833H9.75V9.16666C9.75 9.41875 9.99375 9.625 10.2917 9.625H10.8333C11.1313 9.625 11.375 9.41875 11.375 9.16666V5.5L10.2483 2.75458ZM3.71042 3.20833H9.28417L9.86917 4.63375H3.12542L3.71042 3.20833ZM10.2917 7.79166H2.70833V5.5H10.2917V7.79166Z" fill="#101010"/>
<path d="M4.0625 7.33334C4.51123 7.33334 4.875 7.02553 4.875 6.64584C4.875 6.26614 4.51123 5.95834 4.0625 5.95834C3.61377 5.95834 3.25 6.26614 3.25 6.64584C3.25 7.02553 3.61377 7.33334 4.0625 7.33334Z" fill="#101010"/>
<path d="M8.9375 7.33334C9.38623 7.33334 9.75 7.02553 9.75 6.64584C9.75 6.26614 9.38623 5.95834 8.9375 5.95834C8.48877 5.95834 8.125 6.26614 8.125 6.64584C8.125 7.02553 8.48877 7.33334 8.9375 7.33334Z" fill="#101010"/>
</g>
<defs>
<clipPath id="clip0_20_50">
<rect width="13" height="11" fill="white"/>
</clipPath>
</defs>
</svg>
